<?xml version="1.0" encoding="utf-8"?>
<!-- Generator: Adobe Illustrator 18.1.0, SVG Export Plug-In . SVG Version: 6.00 Build 0)  -->
<svg version="1.1" id="Layer_1" xmlns="http://www.w3.org/2000/svg" xmlns:xlink="http://www.w3.org/1999/xlink" x="0px" y="0px"
	 viewBox="0 0 150 150" enable-background="new 0 0 150 150" xml:space="preserve" >
<g>
	<path fill="#00A9A2" d="M133,127.2c0,3.7-3,6.8-6.8,6.8H23.5c-3.7,0-6.7-3-6.7-6.8V24.5c0-3.7,3-6.8,6.7-6.8h102.8
		c3.7,0,6.8,3,6.8,6.8V127.2z"/>
	<linearGradient id="SVGID_1_" gradientUnits="userSpaceOnUse" x1="78.3187" y1="73.5924" x2="276.6062" y2="283.0286">
		<stop  offset="5.618000e-03" style="stop-color:#356C6A"/>
		<stop  offset="1" style="stop-color:#00A9A2"/>
	</linearGradient>
	<path opacity="0.44" fill="url(#SVGID_1_)" d="M106.9,29.1L74.1,38v63.9l-18,9.5l-13.5,11.4L58,134h68.3c3.7,0,6.8-3,6.8-6.8V44.5
		L106.9,29.1z"/>
	<g>
		<path fill="#FFFFFE" d="M45.8,119.5c0-14.7,6.6-23,9.8-25.8c3.2-2.8,9.9-7.7,13.2-10.8c3.4-3.2,3.2-7.4,3.2-7.4
			c0-5.2-6.6-10.3-6.6-10.3C43.1,49.6,45.3,33.8,45.3,33.8h59.3c0,0,2.2,15.9-20.1,31.5c0,0-6.6,5.1-6.6,10.3c0,0-0.2,4.2,3.2,7.4
			c3.4,3.2,10.1,8.1,13.2,10.8c3.2,2.8,9.8,11.1,9.8,25.8H45.8z"/>
		<path fill="#FFFFFF" d="M108.5,120.4c0,1.5-1.2,2.8-2.8,2.8H44c-1.5,0-2.8-1.2-2.8-2.8l0,0c0-1.5,1.2-2.8,2.8-2.8h61.7
			C107.3,117.6,108.5,118.9,108.5,120.4L108.5,120.4z"/>
		<path fill="#FFFFFF" d="M108.5,31.6c0,1.5-1.2,2.8-2.8,2.8H44c-1.5,0-2.8-1.2-2.8-2.8l0,0c0-1.5,1.2-2.8,2.8-2.8h61.7
			C107.3,28.8,108.5,30.1,108.5,31.6L108.5,31.6z"/>
		<g>
			<linearGradient id="SVGID_2_" gradientUnits="userSpaceOnUse" x1="73.7983" y1="169.4141" x2="75.3908" y2="96.9511">
				<stop  offset="7.303400e-02" style="stop-color:#C49F7C"/>
				<stop  offset="1" style="stop-color:#DEC6B0"/>
			</linearGradient>
			<path fill="url(#SVGID_2_)" d="M102.4,119.5c-2.8-9.7-14-17-27.5-17c-13.5,0-24.7,7.3-27.5,17H102.4z"/>
			<linearGradient id="SVGID_3_" gradientUnits="userSpaceOnUse" x1="72.3444" y1="169.3964" x2="73.9372" y2="96.9223">
				<stop  offset="7.303400e-02" style="stop-color:#C49F7C"/>
				<stop  offset="1" style="stop-color:#DEC6B0"/>
			</linearGradient>
			<ellipse fill="url(#SVGID_3_)" cx="74.9" cy="53.3" rx="19.9" ry="3.7"/>
			<linearGradient id="SVGID_4_" gradientUnits="userSpaceOnUse" x1="72.2211" y1="169.3858" x2="73.8138" y2="96.916">
				<stop  offset="7.303400e-02" style="stop-color:#C49F7C"/>
				<stop  offset="1" style="stop-color:#DEC6B0"/>
			</linearGradient>
			<path fill="url(#SVGID_4_)" d="M55,53.8c0,0,1.6,1.6,8.6,7.7c7,6.1,10,8.2,10,17.8c0,9.6,0,12.4,0,12.4h0.9H75H76
				c0,0,0-2.8,0-12.4c0-9.6,2.9-11.7,10-17.8c7-6.1,8.6-7.7,8.6-7.7"/>
			<g>
				<linearGradient id="SVGID_5_" gradientUnits="userSpaceOnUse" x1="73.0965" y1="169.4016" x2="74.6891" y2="96.9346">
					<stop  offset="7.303400e-02" style="stop-color:#C49F7C"/>
					<stop  offset="1" style="stop-color:#DEC6B0"/>
				</linearGradient>
				<path fill="url(#SVGID_5_)" d="M78.5,99.5c0,1-0.3,1.8-1,2.4c-0.6,0.6-1.5,0.9-2.5,1v1.5h-0.7v-1.5c-1.2-0.1-2.1-0.4-2.7-1
					c-0.6-0.6-0.9-1.5-0.9-2.7h2.1c0.1,0.6,0.2,1.1,0.3,1.3c0.2,0.3,0.6,0.5,1.2,0.6v-3.3c-0.7-0.2-1.2-0.4-1.7-0.6
					c-1.1-0.5-1.7-1.4-1.7-2.7c0-0.9,0.3-1.6,0.9-2.2c0.6-0.7,1.5-1,2.5-1v-1H75v1c1.1,0.1,1.9,0.4,2.4,1c0.5,0.5,0.8,1.3,0.9,2.4
					h-2c0-0.5-0.1-0.9-0.3-1.2c-0.2-0.3-0.5-0.5-1-0.5v3c1.4,0.4,2.3,0.9,2.7,1.3C78.3,97.8,78.5,98.5,78.5,99.5z M74.3,95.7V93
					c-0.4,0-0.8,0.2-1,0.4c-0.2,0.3-0.4,0.6-0.4,0.9c0,0.3,0.1,0.6,0.3,0.9C73.6,95.5,73.9,95.7,74.3,95.7z M75,101.2
					c0.4,0,0.8-0.2,1.1-0.5c0.3-0.3,0.4-0.6,0.4-1c0-0.4-0.1-0.7-0.3-1c-0.3-0.3-0.6-0.5-1.1-0.6V101.2z"/>
			</g>
			<g>
				<linearGradient id="SVGID_6_" gradientUnits="userSpaceOnUse" x1="70.862" y1="169.3462" x2="72.4545" y2="96.8838">
					<stop  offset="7.303400e-02" style="stop-color:#C49F7C"/>
					<stop  offset="1" style="stop-color:#DEC6B0"/>
				</linearGradient>
				<path fill="url(#SVGID_6_)" d="M75.3,50.7c-1,1-2.1,1.5-3.4,1.4c-1.2,0-2.4-0.6-3.5-1.5l-1.5,1.5l-0.7-0.7l1.5-1.5
					c-1.1-1.3-1.7-2.5-1.7-3.6c0-1.2,0.6-2.4,1.8-3.6l2.1,2c-0.5,0.7-0.9,1.3-1,1.7c-0.1,0.5,0.1,1.2,0.5,1.8l3.3-3.3
					c-0.5-0.8-0.9-1.6-1.1-2.3c-0.6-1.7-0.3-3.1,0.9-4.3c0.8-0.9,1.9-1.3,3.1-1.3c1.3-0.1,2.5,0.4,3.5,1.4l1-1l0.7,0.7l-1,1
					c1,1.2,1.5,2.3,1.5,3.3c0,1-0.4,2.1-1.4,3.2l-2-2c0.5-0.6,0.8-1,0.9-1.4c0.1-0.5-0.1-1-0.6-1.5l-2.9,3c0.9,1.8,1.4,3.1,1.4,3.9
					C76.6,48.8,76.2,49.8,75.3,50.7z M74.7,42.9l2.7-2.7c-0.4-0.4-0.9-0.6-1.4-0.6c-0.5,0-0.9,0.2-1.2,0.5c-0.3,0.3-0.5,0.8-0.6,1.3
					C74.2,41.9,74.4,42.4,74.7,42.9z M70.1,49c0.5,0.4,1,0.6,1.5,0.6c0.5,0,1-0.2,1.4-0.6c0.4-0.4,0.6-0.8,0.6-1.3
					c0-0.6-0.1-1.1-0.5-1.7L70.1,49z"/>
			</g>
			<g>
				<linearGradient id="SVGID_7_" gradientUnits="userSpaceOnUse" x1="83.9358" y1="169.6418" x2="85.5285" y2="97.1732">
					<stop  offset="7.303400e-02" style="stop-color:#C49F7C"/>
					<stop  offset="1" style="stop-color:#DEC6B0"/>
				</linearGradient>
				<path fill="url(#SVGID_7_)" d="M86.9,53.5c-1,0.6-2,0.8-3,0.5c-1-0.3-1.8-0.9-2.5-1.9l-1.5,0.9l-0.4-0.7l1.5-0.9
					c-0.6-1.3-0.9-2.4-0.7-3.3c0.2-0.9,0.9-1.8,2.1-2.5l1.3,2c-0.6,0.5-0.9,0.8-1.1,1.2c-0.2,0.4-0.2,0.9,0.1,1.6l3.3-2
					c-0.2-0.8-0.4-1.4-0.5-2c-0.2-1.4,0.4-2.5,1.6-3.3c0.8-0.5,1.8-0.7,2.7-0.5c1.1,0.2,1.9,0.8,2.6,1.8l1-0.6l0.4,0.7l-1,0.6
					c0.5,1.1,0.7,2.1,0.5,3c-0.2,0.9-0.8,1.6-1.8,2.3l-1.2-2c0.5-0.4,0.8-0.7,1-1c0.2-0.4,0.1-0.8-0.2-1.3l-2.9,1.8
					c0.4,1.6,0.5,2.8,0.4,3.4C88.4,52.2,87.8,53,86.9,53.5z M88,47.1l2.7-1.7c-0.3-0.4-0.6-0.6-1-0.7c-0.4-0.1-0.8,0-1.1,0.2
					c-0.3,0.2-0.6,0.5-0.7,0.9C87.8,46.2,87.8,46.6,88,47.1z M83,51.1c0.3,0.4,0.7,0.7,1.1,0.8c0.4,0.1,0.8,0,1.2-0.2
					c0.4-0.2,0.6-0.5,0.7-0.9c0.1-0.4,0.1-0.9,0-1.5L83,51.1z"/>
			</g>
			<g>
				<linearGradient id="SVGID_8_" gradientUnits="userSpaceOnUse" x1="80.9283" y1="169.5824" x2="82.5211" y2="97.1076">
					<stop  offset="7.303400e-02" style="stop-color:#C49F7C"/>
					<stop  offset="1" style="stop-color:#DEC6B0"/>
				</linearGradient>
				<path fill="url(#SVGID_8_)" d="M85.8,99.6c0.4,0.7,0.4,1.3,0.2,2c-0.2,0.6-0.7,1.1-1.3,1.5l0.5,1l-0.5,0.2l-0.5-1
					c-0.9,0.4-1.6,0.4-2.1,0.3c-0.6-0.2-1.1-0.7-1.5-1.5l1.4-0.7c0.3,0.4,0.5,0.7,0.7,0.8c0.3,0.1,0.6,0.2,1,0l-1.1-2.2
					c-0.5,0.1-0.9,0.2-1.3,0.2c-0.9,0-1.6-0.4-2.1-1.2c-0.3-0.6-0.4-1.2-0.2-1.8c0.2-0.7,0.6-1.2,1.3-1.6l-0.4-0.7l0.5-0.2l0.4,0.7
					c0.8-0.3,1.4-0.4,2-0.2c0.5,0.2,1,0.6,1.4,1.3l-1.4,0.7c-0.2-0.3-0.4-0.6-0.6-0.7c-0.2-0.1-0.5-0.1-0.9,0l1,2
					c1.1-0.2,1.8-0.2,2.2-0.1C85.1,98.6,85.5,99,85.8,99.6z M81.7,98.6l-0.9-1.8c-0.3,0.2-0.4,0.4-0.5,0.6c-0.1,0.2,0,0.5,0.1,0.7
					c0.1,0.2,0.3,0.4,0.6,0.5C81.1,98.7,81.4,98.7,81.7,98.6z M84.1,101.9c0.3-0.2,0.5-0.4,0.5-0.7c0.1-0.3,0-0.5-0.1-0.8
					c-0.1-0.2-0.3-0.4-0.6-0.5c-0.3-0.1-0.6-0.1-1,0L84.1,101.9z"/>
			</g>
			<g>
				<linearGradient id="SVGID_9_" gradientUnits="userSpaceOnUse" x1="64.8626" y1="169.2165" x2="66.4551" y2="96.754">
					<stop  offset="7.303400e-02" style="stop-color:#C49F7C"/>
					<stop  offset="1" style="stop-color:#DEC6B0"/>
				</linearGradient>
				<path fill="url(#SVGID_9_)" d="M67.5,103.2c-0.5,0.6-1.1,0.9-1.8,0.9c-0.6,0-1.3-0.2-1.9-0.7l-0.8,0.9l-0.4-0.4l0.8-0.9
					c-0.6-0.7-1-1.3-1-1.9c0-0.6,0.2-1.3,0.9-2l1.2,1c-0.3,0.4-0.4,0.7-0.5,0.9c0,0.3,0.1,0.6,0.3,1l1.7-1.9
					c-0.3-0.4-0.5-0.8-0.7-1.2c-0.4-0.9-0.2-1.7,0.4-2.4c0.4-0.5,1-0.7,1.6-0.8c0.7-0.1,1.3,0.1,1.9,0.7l0.5-0.6l0.4,0.4l-0.5,0.6
					c0.5,0.6,0.8,1.2,0.9,1.7c0,0.6-0.2,1.2-0.7,1.8l-1.1-1c0.2-0.3,0.4-0.6,0.4-0.8c0-0.3-0.1-0.5-0.3-0.8l-1.5,1.7
					c0.5,0.9,0.8,1.6,0.9,2C68.1,102.1,67.9,102.7,67.5,103.2z M66.9,99l1.4-1.5c-0.2-0.2-0.5-0.3-0.8-0.3c-0.3,0-0.5,0.1-0.6,0.3
					c-0.2,0.2-0.3,0.4-0.3,0.7C66.6,98.5,66.7,98.7,66.9,99z M64.6,102.4c0.3,0.2,0.5,0.3,0.8,0.3c0.3,0,0.5-0.2,0.7-0.4
					c0.2-0.2,0.3-0.4,0.3-0.7c0-0.3-0.1-0.6-0.3-0.9L64.6,102.4z"/>
			</g>
			<g>
				<linearGradient id="SVGID_10_" gradientUnits="userSpaceOnUse" x1="55.8662" y1="169.0215" x2="57.4588" y2="96.5569">
					<stop  offset="7.303400e-02" style="stop-color:#C49F7C"/>
					<stop  offset="1" style="stop-color:#DEC6B0"/>
				</linearGradient>
				<path fill="url(#SVGID_10_)" d="M59.9,108.3c-0.1,0.7-0.5,1.3-1.1,1.7c-0.6,0.3-1.2,0.5-2,0.4l-0.2,1.1l-0.5-0.1l0.2-1.1
					c-0.9-0.2-1.5-0.6-1.9-1.1c-0.4-0.5-0.5-1.2-0.3-2.1l1.5,0.3c0,0.5,0,0.8,0.1,1c0.1,0.3,0.4,0.5,0.8,0.6l0.5-2.5
					c-0.5-0.2-0.9-0.4-1.2-0.7c-0.8-0.6-1.1-1.3-0.9-2.2c0.1-0.6,0.4-1.1,1-1.5c0.6-0.4,1.2-0.6,2-0.4l0.1-0.7l0.5,0.1l-0.1,0.7
					c0.8,0.2,1.3,0.6,1.7,1c0.3,0.5,0.4,1.1,0.3,1.9l-1.5-0.3c0-0.4,0-0.7-0.1-0.9c-0.1-0.3-0.3-0.4-0.7-0.5l-0.4,2.2
					c1,0.5,1.6,1,1.8,1.3C59.9,107,60,107.6,59.9,108.3z M57.3,104.9l0.4-2c-0.3,0-0.6,0-0.8,0.2c-0.2,0.2-0.3,0.4-0.4,0.6
					c0,0.3,0,0.5,0.1,0.7C56.7,104.6,57,104.8,57.3,104.9z M57,109c0.3,0,0.6,0,0.8-0.2c0.2-0.2,0.4-0.4,0.4-0.7
					c0-0.3,0-0.5-0.1-0.7c-0.1-0.3-0.4-0.5-0.7-0.6L57,109z"/>
			</g>
			<g>
				<linearGradient id="SVGID_11_" gradientUnits="userSpaceOnUse" x1="88.9517" y1="169.7561" x2="90.5445" y2="97.2833">
					<stop  offset="7.303400e-02" style="stop-color:#C49F7C"/>
					<stop  offset="1" style="stop-color:#DEC6B0"/>
				</linearGradient>
				<path fill="url(#SVGID_11_)" d="M93.4,102.7c0.5,0.5,0.7,1,0.7,1.7c0,0.6-0.3,1.2-0.7,1.7l0.7,0.7l-0.3,0.3l-0.7-0.7
					c-0.6,0.6-1.2,0.8-1.8,0.9c-0.6,0-1.2-0.3-1.7-0.9l1-1c0.3,0.3,0.6,0.4,0.8,0.5c0.3,0,0.6,0,0.9-0.3l-1.6-1.6
					c-0.4,0.2-0.8,0.4-1.1,0.5c-0.8,0.3-1.5,0.1-2.1-0.5c-0.4-0.4-0.6-0.9-0.7-1.5c0-0.6,0.2-1.2,0.7-1.7l-0.5-0.5l0.3-0.3l0.5,0.5
					c0.6-0.5,1.1-0.7,1.6-0.7c0.5,0,1,0.2,1.6,0.7l-1,1c-0.3-0.2-0.5-0.4-0.7-0.4c-0.3-0.1-0.5,0-0.7,0.3l1.4,1.4
					c0.9-0.5,1.5-0.7,1.9-0.7C92.4,102,92.9,102.3,93.4,102.7z M89.5,103l-1.3-1.3c-0.2,0.2-0.3,0.4-0.3,0.7c0,0.2,0.1,0.4,0.3,0.6
					c0.2,0.2,0.4,0.3,0.6,0.3C89,103.3,89.3,103.2,89.5,103z M92.5,105.2c0.2-0.2,0.3-0.5,0.3-0.7c0-0.3-0.1-0.5-0.3-0.7
					c-0.2-0.2-0.4-0.3-0.6-0.3c-0.3,0-0.6,0.1-0.8,0.2L92.5,105.2z"/>
			</g>
			<g>
				<linearGradient id="SVGID_12_" gradientUnits="userSpaceOnUse" x1="96.2656" y1="169.9146" x2="97.8583" y2="97.4437">
					<stop  offset="7.303400e-02" style="stop-color:#C49F7C"/>
					<stop  offset="1" style="stop-color:#DEC6B0"/>
				</linearGradient>
				<path fill="url(#SVGID_12_)" d="M100,109.1c0.3,0.5,0.3,0.9,0.2,1.4c-0.1,0.4-0.4,0.8-0.9,1.1l0.4,0.7l-0.3,0.2l-0.4-0.7
					c-0.6,0.3-1.1,0.4-1.5,0.3c-0.4-0.1-0.8-0.5-1.1-1l1-0.6c0.2,0.3,0.4,0.5,0.5,0.5c0.2,0.1,0.4,0.1,0.7,0l-0.9-1.5
					c-0.4,0.1-0.7,0.2-0.9,0.2c-0.7,0.1-1.2-0.2-1.5-0.8c-0.2-0.4-0.3-0.8-0.2-1.3c0.1-0.5,0.4-0.9,0.9-1.2l-0.3-0.5l0.3-0.2
					l0.3,0.5c0.5-0.2,1-0.3,1.4-0.2c0.4,0.1,0.7,0.4,1.1,0.9l-0.9,0.5c-0.2-0.2-0.3-0.4-0.4-0.5c-0.2-0.1-0.4-0.1-0.6,0.1l0.8,1.4
					c0.8-0.2,1.3-0.2,1.6-0.1C99.4,108.4,99.8,108.7,100,109.1z M97,108.5l-0.7-1.3c-0.2,0.1-0.3,0.3-0.3,0.5c0,0.2,0,0.4,0.1,0.5
					c0.1,0.2,0.2,0.3,0.4,0.3C96.6,108.6,96.8,108.6,97,108.5z M98.8,110.9c0.2-0.1,0.3-0.3,0.4-0.5c0-0.2,0-0.4-0.1-0.6
					c-0.1-0.2-0.2-0.3-0.4-0.4c-0.2-0.1-0.4-0.1-0.7,0L98.8,110.9z"/>
			</g>
		</g>
	</g>
</g>
</svg>
